# File created by Blade
# Date/Time:  Wed Jan 21 19:19:27 2015
#---------------------------------------------------------
:version 1.10
:name HOM
:units
  mass 1.0
  length 1.000000
  angle deg
:documentation
     Acclaim Skeleton File
:root
   axis xyz
   order TX TY TZ RX RY RZ
   position 0.000000 0.000000 0.000000
   orientation 0 0 0
:bonedata
   begin
      id 1
      name RightUpLeg_dum
      direction -1.000000 0.000000 0.000000
      length 3.693983
      axis 0.0 0.0 0.0 xyz
   end
   begin
      id 2
      name LeftUpLeg_dum
      direction 1.000000 0.000000 0.000000
      length 3.693983
      axis 0.0 0.0 0.0 xyz
   end
   begin
      id 3
      name Spine_dum
      direction 0.000000 1.000000 0.000000
      length 2.392956
      axis 0.0 0.0 0.0 xyz
   end
   begin
      id 4
      name RightUpLeg
      direction 0.000000 -1.000000 0.000000
      length 15.795667
      axis 0.0 0.0 0.0 xyz
      dof rx ry rz
   end
   begin
      id 5
      name RightLeg
      direction 0.000000 -1.000000 0.000000
      length 14.766989
      axis 0.0 0.0 0.0 xyz
      dof rx ry rz
   end
   begin
      id 6
      name RightFoot
      direction 0.000000 -0.258819 0.965926
      length 4.962790
      axis 15.0 0.0 0.0 xyz
      dof rx ry rz
   end
   begin
      id 7
      name RightToeBase
      direction 0.000000 0.000000 1.000000
      length 2.952750
      axis 0.0 0.0 0.0 xyz
      dof rx ry rz
   end
   begin
      id 8
      name LeftUpLeg
      direction 0.000000 -1.000000 0.000000
      length 15.795667
      axis 0.0 0.0 0.0 xyz
      dof rx ry rz
   end
   begin
      id 9
      name LeftLeg
      direction 0.000000 -1.000000 0.000000
      length 14.766989
      axis 0.0 0.0 0.0 xyz
      dof rx ry rz
   end
   begin
      id 10
      name LeftFoot
      direction 0.000000 -0.258819 0.965926
      length 4.962790
      axis 15.0 0.0 0.0 xyz
      dof rx ry rz
   end
   begin
      id 11
      name LeftToeBase
      direction 0.000000 0.000000 1.000000
      length 2.952750
      axis 0.0 0.0 0.0 xyz
      dof rx ry rz
   end
   begin
      id 12
      name Spine
      direction 0.000000 1.000000 0.000000
      length 0.000000
      axis 0.0 0.0 0.0 xyz
      dof rx ry rz
   end
   begin
      id 13
      name Spine_dum1
      direction 0.000000 1.000000 0.000000
      length 13.207411
      axis 0.0 0.0 0.0 xyz
   end
   begin
      id 14
      name Spine_dum2
      direction 0.000000 1.000000 0.000000
      length 13.207411
      axis 0.0 0.0 0.0 xyz
   end
   begin
      id 15
      name Spine_dum3
      direction 0.000000 1.000000 0.000000
      length 19.250100
      axis 0.0 0.0 0.0 xyz
   end
   begin
      id 16
      name RightShoulder
      direction -1.000000 0.000000 0.000000
      length 8.140465
      axis 0.0 0.0 90.0 xyz
      dof rx ry rz
   end
   begin
      id 17
      name RightArm
      direction -1.000000 0.000000 0.000000
      length 10.649840
      axis 0.0 0.0 90.0 xyz
      dof rx ry rz
   end
   begin
      id 18
      name RightForeArm
      direction -1.000000 0.000000 0.000000
      length 8.304624
      axis 0.0 0.0 90.0 xyz
      dof ry rz rx
   end
   begin
      id 19
      name RightHand
      direction -1.000000 0.000000 0.000000
      length 0.000000
      axis 0.0 0.0 90.0 xyz
      dof rx ry rz
   end
   begin
      id 20
      name RightHand_dum1
      direction -1.000000 0.000000 0.000000
      length 3.937000
      axis 0.0 0.0 90.0 xyz
   end
   begin
      id 21
      name RightHand_dum2
      direction 0.000000 0.000000 0.000000
      length 0.000000
      axis 0.0 0.0 90.0 xyz
   end
   begin
      id 22
      name RightHandThumb1
      direction 0.000000 0.000000 1.000000
      length 3.937000
      axis 0.0 0.0 90.0 xyz
      dof rx rz ry
   end
   begin
      id 23
      name LeftShoulder
      direction 1.000000 0.000000 0.000000
      length 8.140465
      axis 0.0 0.0 -90.0 xyz
      dof rx ry rz
   end
   begin
      id 24
      name LeftArm
      direction 1.000000 0.000000 0.000000
      length 10.649840
      axis 0.0 0.0 -90.0 xyz
      dof rx ry rz
   end
   begin
      id 25
      name LeftForeArm
      direction 1.000000 0.000000 0.000000
      length 8.304624
      axis 0.0 0.0 -90.0 xyz
      dof ry rz rx
   end
   begin
      id 26
      name LeftHand
      direction 1.000000 0.000000 0.000000
      length 0.000000
      axis 0.0 0.0 -90.0 xyz
      dof rx ry rz
   end
   begin
      id 27
      name LeftHand_dum1
      direction 1.000000 0.000000 0.000000
      length 3.937000
      axis 0.0 0.0 -90.0 xyz
   end
   begin
      id 28
      name LeftHand_dum2
      direction 0.000000 0.000000 0.000000
      length 0.000000
      axis 0.0 0.0 -90.0 xyz
   end
   begin
      id 29
      name LeftHandThumb1
      direction 0.000000 0.000000 1.000000
      length 3.937000
      axis 0.0 0.0 -90.0 xyz
      dof rx rz ry
   end
   begin
      id 30
      name Head
      direction 0.000000 1.000000 0.000000
      length 4.527550
      axis 0.0 0.0 0.0 xyz
      dof rx ry rz
   end
:hierarchy
   begin
      root RightUpLeg_dum LeftUpLeg_dum Spine_dum
      RightUpLeg_dum RightUpLeg
      LeftUpLeg_dum LeftUpLeg
      Spine_dum Spine
      RightUpLeg RightLeg
      RightLeg RightFoot
      RightFoot RightToeBase
      LeftUpLeg LeftLeg
      LeftLeg LeftFoot
      LeftFoot LeftToeBase
      Spine Spine_dum1 Spine_dum2 Spine_dum3
      Spine_dum1 RightShoulder
      Spine_dum2 LeftShoulder
      Spine_dum3 Head
      RightShoulder RightArm
      RightArm RightForeArm
      RightForeArm RightHand
      RightHand RightHand_dum1 RightHand_dum2
      RightHand_dum2 RightHandThumb1
      LeftShoulder LeftArm
      LeftArm LeftForeArm
      LeftForeArm LeftHand
      LeftHand LeftHand_dum1 LeftHand_dum2
      LeftHand_dum2 LeftHandThumb1
   end

# File created by Blade
# Date/Time:  Wed Jan 21 19:19:18 2015
# Frame Rate: 120.000 fps
#------------------------------------------------------
:FULLY-SPECIFIED
:DEGREES
1
root 1.004633 32.704550 0.230956 42.608302 1.655805 -1.687788
RightUpLeg -36.882843 -6.906989 8.782934
RightLeg -1.404604 -0.000000 0.000000
RightFoot -5.971444 6.388068 22.338477
RightToeBase 18.381512 -0.000000 -0.000000
LeftUpLeg -38.050798 3.419603 -2.257347
LeftLeg 2.289135 -0.000000 -0.000000
LeftFoot -10.368903 -4.791961 -6.409988
LeftToeBase 10.140223 -0.000000 -0.000000
Spine -46.244869 -0.982646 -0.749233
RightShoulder -20.658683 15.489157 -40.799853
RightArm 1.742363 -18.425250 50.295519
RightForeArm 4.776470 -0.000000 0.542412
RightHand 15.052452 -0.000000 -8.870082
RightHandThumb1 -24.326973 -0.000000 -32.862282
LeftShoulder -12.534415 5.137392 38.939383
LeftArm 16.262294 -12.597759 -44.775862
LeftForeArm 17.703164 -0.000000 7.313755
LeftHand -25.595581 0.000000 12.163426
LeftHandThumb1 -26.253704 0.000000 33.147579
Head 10.861487 -10.814360 13.784444
2
root 0.991072 32.723867 0.190698 42.782248 1.332544 -1.922032
RightUpLeg -37.251252 -6.689519 8.826338
RightLeg -1.163318 -0.000000 0.000000
RightFoot -5.691406 6.715880 23.513235
RightToeBase 18.005905 -0.000000 -0.000000
LeftUpLeg -38.300427 3.634788 -2.175065
LeftLeg 2.336648 -0.000000 -0.000000
LeftFoot -10.364365 -4.502838 -6.374189
LeftToeBase 10.123969 -0.000000 -0.000000
Spine -46.277613 -0.800501 -0.715360
RightShoulder -20.600121 15.337725 -40.444936
RightArm 1.849128 -18.554915 51.049222
RightForeArm 4.898623 -0.000000 0.551716
RightHand 15.366482 -0.000000 -9.080817
RightHandThumb1 -24.326973 -0.000000 -32.862282
LeftShoulder -12.552113 5.260153 38.865104
LeftArm 15.901974 -13.067029 -45.743524
LeftForeArm 18.008291 -0.000000 8.096852
LeftHand -25.617671 -0.000000 12.640058
LeftHandThumb1 -26.253704 0.000000 33.147579
Head 11.023979 -10.950279 14.142435
3
root 0.973915 32.742879 0.153248 42.928344 0.974048 -2.164801
RightUpLeg -37.579096 -6.471068 8.835992
RightLeg -0.936986 -0.000000 0.000000
RightFoot -5.262314 7.326491 24.876796
RightToeBase 17.569657 -0.000000 -0.000000
LeftUpLeg -38.507649 3.851566 -2.073714
LeftLeg 2.385703 -0.000000 -0.000000
LeftFoot -10.367112 -4.179694 -6.305872
LeftToeBase 10.027222 -0.000000 -0.000000
Spine -46.289050 -0.607577 -0.699759
RightShoulder -20.496871 15.195219 -40.054857
RightArm 1.904701 -18.718993 51.800484
RightForeArm 4.979578 -0.000000 0.604340
RightHand 15.592314 -0.000000 -9.095848
RightHandThumb1 -24.326973 -0.000000 -32.862282
LeftShoulder -12.551748 5.463211 38.796869
LeftArm 15.588250 -13.473067 -46.714217
LeftForeArm 18.180546 0.000000 8.833225
LeftHand -25.824527 -0.000000 12.910845
LeftHandThumb1 -26.253704 0.000000 33.147579
Head 11.200508 -11.080659 14.514575
4
root 0.957769 32.761234 0.115054 43.037288 0.621575 -2.391271
RightUpLeg -37.858423 -6.219241 8.768314
RightLeg -0.733546 -0.000000 0.000000
RightFoot -4.543759 7.994170 26.828008
RightToeBase 16.760479 -0.000000 -0.000000
LeftUpLeg -38.690990 4.063992 -1.981359
LeftLeg 2.462532 -0.000000 -0.000000
LeftFoot -10.384861 -3.891695 -6.275845
LeftToeBase 10.041346 -0.000000 -0.000000
Spine -46.260227 -0.444628 -0.670711
RightShoulder -20.356113 15.056888 -39.648838
RightArm 1.995733 -18.906809 52.554434
RightForeArm 4.985951 -0.000000 0.578027
RightHand 15.703735 -0.000000 -9.017239
RightHandThumb1 -24.326973 -0.000000 -32.862282
LeftShoulder -12.589323 5.734071 38.722293
LeftArm 15.409565 -13.786213 -47.697454
LeftForeArm 18.536906 -0.000000 9.336881
LeftHand -25.890609 -0.000000 12.979626
LeftHandThumb1 -26.253704 0.000000 33.147579
Head 11.412577 -11.117655 14.891579
5
root 0.942084 32.778514 0.082750 43.123449 0.245166 -2.595006
RightUpLeg -38.060845 -5.925719 8.629220
RightLeg -0.636896 -0.000000 0.000000
RightFoot -3.998391 8.383138 28.751407
RightToeBase 16.461206 -0.000000 -0.000000
LeftUpLeg -38.825861 4.237121 -1.877297
LeftLeg 2.542585 -0.000000 -0.000000
LeftFoot -10.391385 -3.483170 -6.236270
LeftToeBase 9.954795 -0.000000 -0.000000
Spine -46.218425 -0.246828 -0.697195
RightShoulder -20.203798 15.001371 -39.301581
RightArm 1.907852 -19.070815 53.362950
RightForeArm 4.994472 -0.000000 0.597299
RightHand 15.696844 -0.000000 -9.000587
RightHandThumb1 -24.326973 -0.000000 -32.862282
LeftShoulder -12.616170 6.065601 38.606988
LeftArm 15.378781 -13.914165 -48.627341
LeftForeArm 18.478659 -0.000000 9.707280
LeftHand -26.034447 -0.000000 12.971286
LeftHandThumb1 -26.253704 0.000000 33.147579
Head 11.617747 -11.215093 15.260726
6
root 0.924854 32.793162 0.051658 43.173659 -0.105656 -2.789811
RightUpLeg -38.163900 -5.635739 8.435426
RightLeg -0.643200 -0.000000 0.000000
RightFoot -3.639872 8.788113 30.278774
RightToeBase 16.309644 -0.000000 -0.000000
LeftUpLeg -38.923393 4.398904 -1.779307
LeftLeg 2.614493 -0.000000 -0.000000
LeftFoot -10.412403 -3.147514 -6.223228
LeftToeBase 10.182645 -0.000000 -0.000000
Spine -46.144673 -0.074970 -0.704085
RightShoulder -20.047532 14.893220 -38.941578
RightArm 1.937649 -19.254969 54.158288
RightForeArm 4.891298 -0.000000 0.439522
RightHand 15.507808 -0.000000 -8.682127
RightHandThumb1 -24.326973 -0.000000 -32.862282
LeftShoulder -12.623484 6.387537 38.499201
LeftArm 15.362938 -13.807739 -49.496132
LeftForeArm 18.468714 0.000000 9.898434
LeftHand -26.081884 0.000000 12.860411
LeftHandThumb1 -26.253704 0.000000 33.147579
Head 11.809570 -11.254538 15.595812
